# xmcd CD database file
#
# Track frame offsets:
#	150
#	29700
#	53315
#	79168
#	112007
#	136511
#	163239
#	182341
#	204480
#	231690
#	250508
#
# Disc length: 3692 seconds
#
# Revision: 0
# Processed by: cddbd v1.5.2PL0 Copyright (c) Steve Scherf et al.
# Submitted via: CDex 1.70beta2
#
DISCID=8c0e6a0b
DTITLE=Joe Beck - The Journey
DYEAR=1980
DGENRE=Jazz
TTITLE0=Killer Joe
TTITLE1=Zanzibar
TTITLE2=Quidado
TTITLE3=Unspoken Words
TTITLE4=So Long
TTITLE5=I Don't Know
TTITLE6=Prime Meridian
TTITLE7=Body And Soul
TTITLE8=The Journey
TTITLE9=A Taste Of Honey
TTITLE10=Invitation
EXTD=YEAR: 1980
EXTT0=
EXTT1=
EXTT2=
EXTT3=
EXTT4=
EXTT5=
EXTT6=
EXTT7=
EXTT8=
EXTT9=
EXTT10=
PLAYORDER=
